<?xml version="1.0" encoding="UTF-8"?>
<svg width="64px" height="64px" viewBox="0 0 64 64" version="1.1" xmlns="http://www.w3.org/2000/svg" xmlns:xlink="http://www.w3.org/1999/xlink">
    <title>travel-agency</title>
    <g id="Page-1" stroke="none" stroke-width="1" fill="none" fill-rule="evenodd">
        <g id="travel-agency" fill="#A873C9" fill-rule="nonzero">
            <path d="M56.1631735,11.8619806 C55.0012733,12.7974002 53.7403817,13.6193296 52.4074962,14.2997711 C53.399411,17.3040129 54.0088586,20.8327097 54.1083501,24.6168845 L61.9736741,24.6168845 C61.718696,19.7278046 59.6348751,15.3341822 56.390154,12.0884611 C56.31966,12.0174672 56.2346673,11.9324746 56.1631735,11.8619806 Z M61.9741741,26.6152128 L54.10885,26.6152128 C54.0238573,30.2573998 53.4429073,33.6586075 52.5074876,36.5918554 C52.4789901,36.7058456 52.4359938,36.8188359 52.3939974,36.9323261 C53.7403817,37.6122677 55.0012733,38.434697 56.1631735,39.3701166 C57.3535712,38.2217153 58.402481,36.9038286 59.252908,35.4864504 C60.8407715,32.8646757 61.8041887,29.8459351 61.9741741,26.6152128 L61.9741741,26.6152128 Z M54.633305,40.7015022 C53.7123841,39.9790643 52.7339682,39.3556179 51.700057,38.8026654 C50.7081423,41.1549632 49.4462507,43.0967964 48.0148737,44.4571795 C47.6184078,44.8401465 46.9944614,44.8256478 46.6114943,44.4286819 C46.2285272,44.031716 46.2435259,43.3942708 46.6399919,43.0118037 C47.9013835,41.820906 48.9932896,40.1060534 49.8857129,37.980736 C49.8007203,37.9522385 49.7157276,37.9242409 49.6307349,37.8817445 C47.8298896,37.201803 45.8890564,36.7903383 43.8627305,36.6913468 L43.8627305,36.9603237 C43.8627305,37.5127762 43.4232683,37.9667372 42.8708158,37.9667372 C42.3183633,37.9667372 41.8639023,37.5132762 41.8639023,36.9603237 L41.8639023,35.6569357 L41.8639023,26.6152128 L37.1728055,26.6152128 C36.6203529,26.6152128 36.1808907,26.1617517 36.1808907,25.6087992 C36.1808907,25.0558468 36.6203529,24.6168845 37.1728055,24.6168845 L41.8639023,24.6168845 L41.8639023,16.5530775 C40.2910375,16.4680848 38.7461703,16.2271055 37.2722969,15.8156408 C36.549859,15.6176579 35.8554187,15.3906774 35.1749772,15.1212005 C34.1830624,18.1399411 33.6166111,21.7396318 33.6166111,25.6087992 C33.6166111,26.1612518 33.1626501,26.6152128 32.6096976,26.6152128 C32.0712439,26.6152128 31.6177828,26.1617517 31.6177828,25.6087992 C31.6177828,21.4421573 32.2552281,17.558991 33.3321355,14.2997711 C32.907172,14.0727906 32.4962074,13.8463101 32.0852427,13.6048308 C31.603784,13.3218552 31.4477975,12.7124075 31.7312731,12.2444477 C32.0147487,11.7624892 32.6246963,11.6065026 33.0921561,11.8899782 C33.4036294,12.0739624 33.7151026,12.2584465 34.0410746,12.4144331 C34.2540563,11.903977 34.4805368,11.4080196 34.7355149,10.926061 C35.4299552,9.53768036 36.2518846,8.33228394 37.1443079,7.35436798 C35.4864504,7.87882291 33.9275843,8.61575958 32.4962074,9.5371804 C32.0282476,9.83465483 31.4192999,9.69316699 31.1213255,9.23920601 C30.8238511,8.77124622 30.9513401,8.1477998 31.4187999,7.85032536 C33.0916562,6.77341791 34.9329979,5.92349095 36.8888299,5.34204092 C38.7881666,4.78958839 40.8004937,4.491614 42.8698159,4.491614 C48.7083141,4.491614 53.9803611,6.84391185 57.8070322,10.670583 C61.6327034,14.4967542 64,19.7832999 64,25.6077993 C64,29.6039559 62.894595,33.3311356 60.9672606,36.5058628 C58.9829312,39.7935802 56.1346759,42.5008476 52.7199694,44.3006929 C52.224012,44.5696698 51.6280632,44.3716868 51.3735851,43.8897282 C51.119107,43.4077696 51.3020912,42.798322 51.7845498,42.5438439 C52.6489755,42.0908828 54.8177891,40.6310083 54.633305,40.7015022 L54.633305,40.7015022 Z M48.5953238,7.35486794 C49.4887471,8.3327839 50.2961777,9.53768036 51.0041168,10.926561 C51.2450961,11.4085196 51.4720766,11.904477 51.6995571,12.4149331 C52.7334682,11.8764794 53.7118841,11.2385342 54.632805,10.5295951 C52.8469585,9.14071447 50.8061338,8.04980822 48.5953238,7.35486794 Z M50.5661545,36.1098968 L50.6081509,35.9964066 C51.4870753,33.2611416 52.0250291,30.0584169 52.1110217,26.6147128 L43.8627305,26.6147128 L43.8627305,34.6785198 C46.1300357,34.7920101 48.3123482,35.2594699 50.338674,36.0244042 C50.4236667,36.0529017 50.4946606,36.0813993 50.5661545,36.1098968 L50.5661545,36.1098968 Z M52.1110217,24.6163845 C52.0250291,21.1156854 51.4725766,17.8844631 50.5661545,15.1212005 C50.4946606,15.1496981 50.4096679,15.1776957 50.338674,15.2061932 C48.3123482,15.9716274 46.1300357,16.4395872 43.8627305,16.5525775 L43.8627305,24.6163845 L52.1110217,24.6163845 Z M43.8627305,6.60393247 L43.8627305,14.5402504 C45.8890564,14.441259 47.8303896,14.0157955 49.6307349,13.335854 C49.7157276,13.3073564 49.8007203,13.2793588 49.8707142,13.2508613 C49.6727312,12.7549039 49.4597496,12.2869441 49.233269,11.8334831 C47.7733945,8.98472787 45.9035552,7.08589106 43.8627305,6.60393247 Z M41.8639023,14.5402504 L41.8639023,6.60393247 C39.8230777,7.08589106 37.9532384,8.98472787 36.5068627,11.8334831 C36.2803822,12.2869441 36.0674005,12.7549039 35.8554187,13.2508613 C36.4928639,13.4913406 37.1308091,13.7183211 37.7967518,13.8883065 C39.1001398,14.2567748 40.4605229,14.4697565 41.8639023,14.5402504 L41.8639023,14.5402504 Z" id="_x35_"></path>
            <path d="M12.3439392,28.7265313 L14.3562663,35.0609869 L18.210935,32.2552281 L13.8883065,27.3941458 L12.3439392,28.7265313 Z M14.7527322,25.3533212 L19.6843084,30.9088438 L24.6018858,25.3533212 L24.6158846,25.3393224 C24.9698542,24.9143589 25.6077993,24.8713626 26.018764,25.2403309 L28.6975338,27.5506324 L35.1174821,30.3563912 C36.4493676,30.9373413 37.4982775,31.8587621 38.2207154,32.9921647 C38.958152,34.1540649 39.354618,35.514448 39.354618,36.9603237 L39.354618,40.6025107 C39.354618,41.1549632 38.9016569,41.6089242 38.3487044,41.6089242 C37.8097507,41.6089242 37.3567897,41.1554632 37.3567897,40.6025107 L37.3567897,36.9603237 C37.3567897,35.8834163 37.073814,34.8910016 36.549359,34.0695721 C36.0249041,33.2616416 35.2739686,32.6096976 34.3240503,32.1842342 L28.7690277,29.7609424 L26.473225,36.9883213 C26.274742,37.6402653 25.4813102,37.8812446 24.9423565,37.4842787 L20.6767231,34.3805454 L20.6767231,41.3529462 C20.6767231,41.9053988 20.2377608,42.3593597 19.6848083,42.3593597 C19.1323558,42.3593597 18.6788948,41.9058987 18.6788948,41.3529462 L18.6788948,34.3810454 L14.4272602,37.4847787 C14.4272602,37.4847787 14.1577833,37.6262665 14.1297857,37.6262665 C13.6053308,37.7967518 13.0523783,37.5127762 12.8823929,36.9888213 L10.5865902,29.7614424 L5.03106764,32.1847341 C4.08164923,32.6101976 3.33071377,33.2616416 2.82025763,34.0700721 C2.28180391,34.8920015 1.99832827,35.8839162 1.99832827,36.9608237 L1.99832827,53.456906 C1.99832827,54.0093586 1.55886603,54.4633196 1.00641351,54.4633196 C0.453960988,54.4633196 0,54.0098585 0,53.456906 L0,36.9603237 C0,35.514448 0.396965886,34.1545648 1.13390256,32.9921647 C1.85684043,31.8582622 2.91974908,30.9373413 4.23763583,30.3563912 L10.6570842,27.5506324 L13.335354,25.2403309 C13.7463187,24.8718626 14.3842639,24.9148589 14.7387334,25.3393224 L14.7527322,25.3533212 Z M7.72333628,44.6556624 C7.72333628,44.1032099 8.17679731,43.6637476 8.71525103,43.6637476 C9.26770356,43.6637476 9.72166454,44.1032099 9.72166454,44.6556624 L9.72166454,53.4564061 C9.72166454,54.0088586 9.26820351,54.4628196 8.71525103,54.4628196 C8.17679731,54.4628196 7.72333628,54.0093586 7.72333628,53.4564061 L7.72333628,44.6556624 Z M25.4668114,27.3941458 L21.1441829,32.2552281 L24.9988517,35.0609869 L27.0111787,28.7265313 L25.4668114,27.3941458 Z" id="_x34_"></path>
            <path d="M41.6654194,43.0263024 L19.5008241,43.0263024 C18.6503972,43.0263024 17.8284679,43.7632391 17.68698,44.5846685 L14.8807212,60.5427971 C14.7392333,61.3502277 15.2211919,62.0021717 16.0711189,62.0021717 L37.7397567,62.0021717 C38.7316715,62.0021717 39.6810899,61.1522447 39.8510753,60.1883276 L42.6438353,44.2446977 C42.6573341,44.1737038 42.6723328,44.0887111 42.6723328,44.0037184 C42.6723328,43.4082696 42.2463695,43.0263024 41.6654194,43.0263024 Z M29.9454266,51.4580778 C30.4978791,51.4580778 30.9518401,51.9115389 30.9518401,52.4644913 C30.9518401,53.0174438 30.498379,53.4564061 29.9454266,53.4564061 C29.3924741,53.4564061 28.9535118,53.0169439 28.9535118,52.4644913 C28.9535118,51.9120388 29.3924741,51.4580778 29.9454266,51.4580778 Z M19.5008241,41.0279742 L41.6654194,41.0279742 C41.8499035,41.0279742 42.0333878,41.041973 42.2178719,41.0844693 C43.6777464,41.3394474 44.6696612,42.5443438 44.6696612,44.0037184 C44.6696612,44.2022014 44.6411636,44.3866855 44.6131661,44.5846685 L41.821406,60.5427971 C41.4804353,62.4416339 39.6810899,64.0005 37.7397567,64.0005 L16.0711189,64.0005 C14.2572748,64.0005 12.8683941,62.6261181 12.8683941,60.811774 C12.8683941,60.613791 12.8823929,60.4148081 12.9108905,60.1883276 L15.7166494,44.2446977 C16.0286225,42.4733499 17.7004789,41.0279742 19.5008241,41.0279742 Z" id="_x33_"></path>
            <path d="M14.3137699,57.0136004 C14.8662224,57.0136004 15.3201834,57.4530626 15.3201834,58.0055152 C15.3201834,58.0765091 15.3061846,58.147003 15.2916859,58.2179969 L14.8807212,60.5422971 C14.8667224,60.6272898 14.8667224,60.7262813 14.8667224,60.811274 C14.8667224,61.1232472 14.9517151,61.3922241 15.1217005,61.591207 C15.2776871,61.78919 15.5186664,61.916679 15.8161408,61.9736741 C15.8871347,61.9876729 15.9721274,61.9876729 16.0571201,62.0021717 L16.0711189,64.0005 L6.70292397,64.0005 C6.05097999,64.0005 5.38503722,63.8165158 4.8465835,63.4620462 C4.30812977,63.1075767 3.89716509,62.5976205 3.7271797,61.917179 L2.82025763,58.2464944 C2.69276859,57.7080407 3.01874058,57.169587 3.5571943,57.0420979 C3.6281882,57.0136004 3.7131809,57.0136004 3.79767364,57.0136004 L14.3137699,57.0136004 Z M13.1233722,59.0119287 L5.05906524,59.0119287 L5.66851286,61.4492192 C5.69701041,61.591207 5.79600191,61.7046973 5.9379897,61.7896899 C6.15047144,61.9311778 6.41944833,62.0021717 6.70292397,62.0021717 L13.0803759,62.0021717 C12.9383881,61.6342033 12.8678942,61.2372374 12.8678942,60.811774 C12.8678942,60.613791 12.881893,60.4148081 12.9103905,60.1883276 L13.1233722,59.0119287 Z" id="_x32_"></path>
            <path d="M15.3196835,23.5394771 L14.9797127,26.1187554 C14.89472,26.6712079 14.3987626,27.054175 13.8598089,26.9831811 C13.3073564,26.8981884 12.9243893,26.4022311 12.9953832,25.8492786 L13.5198381,22.0231074 L13.2648601,21.7966269 C12.3154416,20.9601987 11.5925038,19.9537852 11.1105452,18.8203826 C10.6145878,17.6864801 10.3736085,16.4395872 10.3736085,15.1072017 L10.3736085,9.05572177 C10.3736085,6.34895439 11.3090281,4.09514807 12.9528869,2.49378569 C14.5827468,0.906422104 16.9070471,0 19.6843084,0 C22.4480709,0 24.7723711,0.906422104 26.4022311,2.49378569 C28.0460898,4.09514807 28.9815094,6.34895439 28.9815094,9.05572177 L28.9815094,15.1072017 C28.9815094,16.3825921 28.7545289,17.6439837 28.2445727,18.8203826 C27.7626142,19.9542852 27.0396763,20.9601987 26.0902579,21.7966269 L25.8352798,22.0231074 L26.3597347,25.8492786 C26.4307286,26.4017311 26.0477615,26.8981884 25.5093078,26.9831811 C24.9568553,27.054675 24.4608979,26.6717079 24.389904,26.1187554 L24.0359344,23.5394771 C23.5824734,23.8514503 23.1290124,24.0919296 22.6470538,24.2764137 C20.9886963,24.9288577 18.3669216,24.9288577 16.7090641,24.2764137 C16.2266055,24.0924296 15.7731445,23.8514503 15.3196835,23.5394771 Z M12.4004343,8.4037778 C13.4348454,8.74424854 15.6601542,9.05622173 16.8080556,6.23546414 C17.0205373,5.72500801 17.6014874,5.48452867 18.1119435,5.69701041 C18.3954191,5.81050066 18.5509058,6.0089836 18.664396,6.27796049 C18.6783948,6.29195928 20.4927389,11.4935123 26.9831811,9.86365234 L26.9831811,9.05622173 C26.9831811,6.91640562 26.274742,5.14455789 25.0133504,3.92566264 C23.7519588,2.69276859 21.9096171,1.99782831 19.6848083,1.99782831 C17.4455008,1.99782831 15.6031591,2.69276859 14.3417675,3.92516268 C13.2223637,5.01656889 12.5279234,6.54743733 12.4004343,8.4037778 L12.4004343,8.4037778 Z M26.9831811,11.9184758 C21.7821281,13.0523783 19.0043668,10.5150964 17.7144777,8.67325464 C16.0846177,10.8700659 13.8313114,10.8130708 12.3714368,10.4586012 L12.3714368,15.1072017 C12.3714368,16.1701104 12.5699198,17.1620251 12.9383881,18.0269508 C13.3068564,18.8913765 13.859309,19.6708095 14.5962456,20.3082548 L15.8011421,21.3851622 C16.325597,21.853122 16.8640507,22.1925928 17.4450008,22.4195733 C18.606901,22.8875331 20.747217,22.8875331 21.9091172,22.4195733 C22.4900673,22.1925928 23.028521,21.852622 23.5669747,21.3851622 L24.7718712,20.3082548 C25.4943091,19.6708095 26.0047652,18.9758693 26.3732336,18.1114435 C26.798197,17.1900227 26.9826812,16.1131153 26.9826812,15.1067018 L26.9826812,11.9184758 L26.9831811,11.9184758 Z" id="_x31_"></path>
        </g>
    </g>
</svg>