<?xml version="1.0" encoding="UTF-8"?>
<svg width="64px" height="64px" viewBox="0 0 64 64" version="1.1" xmlns="http://www.w3.org/2000/svg" xmlns:xlink="http://www.w3.org/1999/xlink">
    <title>Shape</title>
    <g id="Page-1" stroke="none" stroke-width="1" fill="none" fill-rule="evenodd">
        <g id="Extra-Large" transform="translate(-1309.000000, -733.000000)" fill="#2178C6" fill-rule="nonzero">
            <g id="pencil" transform="translate(1309.000000, 733.000000)">
                <path d="M55.3388177,42.6100836 C55.3368177,42.6080836 55.3368177,42.6060836 55.3348177,42.6040836 C55.3328177,42.6020836 55.3308177,42.6020836 55.3288177,42.6000836 L52.5088398,39.7800946 C52.5078398,39.7790946 52.5078398,39.7780946 52.5068398,39.7770946 C52.5058398,39.7760946 52.5048398,39.7760946 52.5038398,39.7750946 L41.8989227,29.1711361 L58.8877899,12.1822024 C58.9017898,12.1682025 58.9087898,12.1482025 58.9217897,12.1322026 C58.9737893,12.0732028 59.0157889,12.0082031 59.0537886,11.9372034 C59.0697885,11.9092035 59.0927883,11.8862036 59.1047882,11.8562037 C59.1097882,11.8442037 59.1107882,11.8332038 59.1147882,11.8212038 C59.1187881,11.8092039 59.1277881,11.8002039 59.131788,11.7892039 L61.9327662,3.33223698 C61.945766,3.29523713 61.9387661,3.25723728 61.946766,3.22023742 C61.9617659,3.15323768 61.9707659,3.08723794 61.9707659,3.01823821 C61.9707659,2.94923848 61.9607659,2.88323874 61.946766,2.816239 C61.9387661,2.77923914 61.945766,2.74123929 61.9327662,2.70423944 C61.9247662,2.68123953 61.9067664,2.66523959 61.8977664,2.64223968 C61.8717666,2.57823993 61.8357669,2.52324014 61.7967672,2.46524037 C61.7607675,2.41224058 61.7277678,2.36124078 61.6827681,2.31824094 C61.6397684,2.27524111 61.5907688,2.24224124 61.5387692,2.20724138 C61.4807697,2.16824153 61.4247701,2.13224167 61.3597706,2.10524178 C61.3377708,2.09524182 61.3207709,2.07724189 61.2967711,2.06924192 C61.2597714,2.05624197 61.2227717,2.06324194 61.184772,2.05524197 C61.1177725,2.04024203 61.052773,2.03024207 60.9817736,2.03024207 C60.9137741,2.03024207 60.8497746,2.04024203 60.7837751,2.05324198 C60.7457754,2.06124195 60.7067757,2.05424198 60.668776,2.06724192 L52.2118421,4.86723099 C52.2038422,4.87023098 52.1978422,4.87723095 52.1908423,4.87923094 C52.0068437,4.9402307 51.8528449,5.04923028 51.7338458,5.19522971 L34.8279779,22.1001637 L18.5671049,5.83922719 C18.566105,5.83822719 18.566105,5.8372272 18.565105,5.8362272 C18.564105,5.83522721 18.563105,5.83522721 18.562105,5.83422721 L13.0211483,0.293248854 C12.6301513,-0.0977496182 11.9981563,-0.0977496182 11.6071593,0.293248854 L0.293247709,11.6072047 C-0.0977492363,11.9982031 -0.0977492363,12.6302007 0.293247709,13.0211991 L22.1000773,34.828114 L13.6121437,43.3170808 C13.6111437,43.3180808 13.6101437,43.3180808 13.6091437,43.3190808 C13.6081437,43.3200808 13.6081437,43.3210808 13.6071437,43.3220808 L10.7831658,46.1460697 C10.7821658,46.1470697 10.7811658,46.1470697 10.7801658,46.1480697 C10.7791658,46.1490697 10.7791658,46.1500697 10.7781658,46.1510697 L2.58922977,54.3400377 C2.58722979,54.3420377 2.58722979,54.3440377 2.5852298,54.3450377 C1.81023586,55.1250347 1.81023586,56.3910297 2.58922977,57.1690267 L6.83119663,61.4110101 C7.22119358,61.8010086 7.73318958,61.9960078 8.24518558,61.9960078 C8.75718158,61.9960078 9.26917758,61.8010086 9.65917454,61.4110101 L29.1720221,41.8980863 L50.9798517,63.7060011 C51.1738502,63.9020004 51.4298482,64 51.6858462,64 C51.9418442,64 52.1978422,63.9020004 52.3928407,63.7070011 L63.7067523,52.3930453 C64.0977492,52.0020469 64.0977492,51.3700493 63.7067523,50.9790509 L55.3388177,42.6100836 Z M19.973094,48.2700614 L15.7311271,44.028078 L35.5339724,24.2241554 C35.5349724,24.2231554 35.5359724,24.2231554 35.5369724,24.2221554 C35.5379724,24.2211554 35.5379724,24.2201554 35.5389724,24.2191554 L51.4988477,8.25921774 L51.4988477,11.4742052 C51.4988477,12.027203 51.9458442,12.4742013 52.4988399,12.4742013 L55.7698143,12.4742013 L19.973094,48.2700614 Z M56.4818087,5.56022828 L58.4387934,7.51722064 L57.4598011,10.4742091 L53.4968321,10.4742091 L53.4968321,6.54822442 L56.4818087,5.56022828 Z M59.1437879,5.39222894 L58.6077921,4.85723103 L59.4087859,4.59223206 L59.1437879,5.39222894 Z M2.41423114,12.3142019 L12.3141538,2.41424057 L13.6151436,3.71523549 L12.9081492,4.42223273 C12.5171522,4.8132312 12.5171522,5.44522873 12.9081492,5.8362272 C13.1031476,6.03122644 13.3591456,6.12922606 13.6151436,6.12922606 C13.8711416,6.12922606 14.1271396,6.03122644 14.3221381,5.8362272 L15.0291326,5.12922996 L16.4431215,6.54322444 L14.3211381,8.66621615 C13.9301412,9.05721462 13.9301412,9.68921215 14.3211381,10.0802106 C14.5161366,10.2752099 14.7721346,10.3732095 15.0281326,10.3732095 C15.2841306,10.3732095 15.5401286,10.2752099 15.7351271,10.0802106 L17.8571105,7.95721892 L19.2730994,9.37321339 L18.565105,10.0802106 C18.174108,10.4712091 18.174108,11.1032066 18.565105,11.4942051 C18.7601034,11.6892043 19.0161014,11.787204 19.2720994,11.787204 C19.5280974,11.787204 19.7840954,11.6892043 19.9790939,11.4942051 L20.6870884,10.7872079 L22.1010773,12.2012023 L19.9780939,14.324194 C19.587097,14.7151925 19.587097,15.3471901 19.9780939,15.7381885 C20.1730924,15.9331878 20.4290904,16.0311874 20.6850884,16.0311874 C20.9410864,16.0311874 21.1970844,15.9331878 21.3920829,15.7381885 L23.5150663,13.6151968 L24.9290552,15.0291913 L24.2220608,15.7361885 C23.8310638,16.127187 23.8310638,16.7591845 24.2220608,17.150183 C24.4170592,17.3451822 24.6730572,17.4431819 24.9290552,17.4431819 C25.1850532,17.4431819 25.4410512,17.3451822 25.6360497,17.150183 L26.3430442,16.4431858 L27.7570331,17.8571802 L25.6340497,19.980172 C25.2430528,20.3711704 25.2430528,21.003168 25.6340497,21.3941664 C25.8290482,21.5891657 26.0850462,21.6871653 26.3410442,21.6871653 C26.5970422,21.6871653 26.8530402,21.5891657 27.0480387,21.3941664 L29.1710221,19.2711747 L30.5850111,20.6851692 L29.8780166,21.3921664 C29.4870196,21.7831649 29.4870196,22.4151624 29.8780166,22.8061609 C30.0730151,23.0011602 30.3290131,23.0991598 30.5850111,23.0991598 C30.8410091,23.0991598 31.0970071,23.0011602 31.2920055,22.8061609 L32,22.1001637 L33.413989,23.5141581 L23.5140663,33.4141195 L2.41423114,12.3142019 Z M8.24418559,59.9980156 L4.00221873,55.7560322 C4.00321872,55.7550322 4.00321872,55.7540322 4.00421872,55.7530322 L8.65718237,51.1000504 L12.8991492,55.3430338 L8.24418559,59.9980156 Z M14.3131382,53.9290393 L10.0711713,49.6860559 L11.4871603,48.2700614 C11.6821587,48.4650607 11.9371567,48.5630603 12.1931547,48.5630603 C12.4491527,48.5630603 12.7051507,48.4650607 12.9001492,48.2700614 C13.2911462,47.879063 13.2911462,47.2480654 12.9001492,46.857067 L14.3161382,45.4420725 L18.558105,49.6840559 L17.1431161,51.0990504 C16.7521191,50.7080519 16.1201241,50.7080519 15.7291271,51.0990504 C15.3381302,51.4900489 15.3381302,52.1220464 15.7291271,52.5130449 L14.3131382,53.9290393 Z M51.6858462,61.5860094 L30.5850111,40.4850919 L40.4849337,30.5851305 L41.8999227,32.000125 L41.1919282,32.7071222 C40.8009312,33.0971207 40.8009312,33.7301182 41.1919282,34.1211167 C41.3869267,34.316116 41.6429247,34.4141156 41.8989227,34.4141156 C42.1549207,34.4141156 42.4109187,34.316116 42.6059171,34.1211167 L43.3139116,33.4141195 L44.7279006,34.828114 L42.6049171,36.9511057 C42.2139202,37.3421041 42.2139202,37.9741017 42.6049171,38.3651001 C42.7999156,38.5600994 43.0559136,38.658099 43.3119116,38.658099 C43.5679096,38.658099 43.8239076,38.5600994 44.0189061,38.3651001 L46.1418895,36.2421084 L47.5558785,37.6561029 L46.848884,38.3631001 C46.457887,38.7540986 46.457887,39.3860961 46.848884,39.7770946 C47.0438825,39.9720939 47.2998805,40.0700935 47.5558785,40.0700935 C47.8118765,40.0700935 48.0678745,39.9720939 48.2628729,39.7770946 L48.9698674,39.0700974 L50.3838564,40.4840919 L48.261873,42.6070836 C47.870876,42.998082 47.870876,43.6300796 48.261873,44.021078 C48.4568714,44.2160773 48.7128694,44.3140769 48.9688674,44.3140769 C49.2248654,44.3140769 49.4808634,44.2160773 49.6758619,44.021078 L51.7978453,41.8980863 L53.2118343,43.3120808 L52.5048398,44.021078 C52.1148429,44.4130765 52.1148429,45.045074 52.5058398,45.4360725 C52.7008383,45.6300718 52.9568363,45.7280714 53.2128343,45.7280714 C53.4688323,45.7280714 53.7258303,45.6300718 53.9208287,45.4350725 L54.6278232,44.7280753 L56.0408122,46.1410698 L53.9178288,48.2630615 C53.5268318,48.6530599 53.5268318,49.2860575 53.9178288,49.6770559 C54.1128272,49.8720552 54.3688252,49.9700548 54.6248232,49.9700548 C54.8808212,49.9700548 55.1368192,49.8720552 55.3318177,49.6770559 L57.4548011,47.5550642 L58.8697901,48.9700587 L58.1617956,49.6770559 C57.7707987,50.0680544 57.7707987,50.700052 58.1617956,51.0910504 C58.3567941,51.2860497 58.6127921,51.3840493 58.8687901,51.3840493 C59.1247881,51.3840493 59.3807861,51.2860497 59.5757846,51.0910504 L60.283779,50.3840532 L61.5847689,51.6850481 L51.6858462,61.5860094 Z" id="Shape"></path>
            </g>
        </g>
    </g>
</svg>