<?xml version="1.0" encoding="UTF-8"?>
<svg width="683px" height="653px" viewBox="0 0 683 653" version="1.1" xmlns="http://www.w3.org/2000/svg" xmlns:xlink="http://www.w3.org/1999/xlink">
    <title>office-building</title>
    <defs>
        <polygon id="path-1" points="0 682.66665 682.66665 682.66665 682.66665 0 0 0"></polygon>
    </defs>
    <g id="Page-1" stroke="none" stroke-width="1" fill="none" fill-rule="evenodd">
        <g id="office-building" transform="translate(0.000000, -15.000000)">
            <g id="g3664-Clipped" transform="translate(341.333325, 341.333325) scale(-1, 1) rotate(-180.000000) translate(-341.333325, -341.333325) translate(0.000000, 0.000000)">
                <mask id="mask-2" fill="white">
                    <use xlink:href="#path-1"></use>
                </mask>
                <g id="path3666"></g>
                <g id="g3664" mask="url(#mask-2)" stroke-linecap="round" stroke-linejoin="round">
                    <g transform="translate(9.999466, 25.319733)">
                        <g id="g3670" transform="translate(80.355598, 0.000533)">
                            <path d="M297.739993,0 L0,0 L0,495.957321 C0,509.861321 8.87866644,522.210654 22.0573328,526.639987 L297.739993,619.306651 L297.739993,0 Z" id="path3672" stroke="#7F7EDB" stroke-width="19.9999995"></path>
                        </g>
                        <g id="g3674" transform="translate(378.093857, 0.000133)">
                            <path d="M167.573329,62.2133318 L167.573329,0 L0,0 L0,336.013325 L184.893329,336.013325 C197.146662,336.013325 207.066661,326.093325 207.066661,313.839992 L207.066661,135.97333" id="path3676" stroke="#7F7EDB" stroke-width="19.9999995"></path>
                        </g>
                        <g id="g3678" transform="translate(378.095591, 0.000533)">
                            <path d="M0,0 L269.535993,0 C277.839993,0 284.571993,6.7306665 284.571993,15.0346663 L284.571993,62.2106651 L0,62.2106651 L0,0 Z" id="path3680" stroke="#7F7EDB" stroke-width="19.9999995"></path>
                        </g>
                        <g id="g3682" transform="translate(545.666920, 62.211465)">
                            <path d="M55.6773319,76.1679981 L61.3226651,76.1679981 C92.0719977,76.1679981 117,51.2399987 117,20.4906662 L117,0 L0,0 L0,20.4906662 C0,51.2399987 24.9279994,76.1679981 55.6773319,76.1679981 Z" id="path3684" stroke="#7F7EDB" stroke-width="19.9999995"></path>
                        </g>
                        <g id="g3686" transform="translate(0.001067, 0.000533)">
                            <path d="M15.0346663,0 L80.3546647,0 L80.3546647,62.2106651 L0,62.2106651 L0,15.0346663 C0,6.7306665 6.7306665,0 15.0346663,0 Z" id="path3688" stroke="#7F7EDB" stroke-width="19.9999995"></path>
                        </g>
                        <g id="g3690" transform="translate(-0.000000, 62.211465)">
                            <path d="M72.4933315,76.1679981 L80.355998,76.1679981 L80.355998,0 L0,0 L0,3.67466657 C0,43.7119989 32.4573325,76.1679981 72.4933315,76.1679981 Z" id="path3692" stroke="#7F7EDB" stroke-width="19.9999995"></path>
                        </g>
                        <g id="g3694" transform="translate(378.095324, 336.020125)">
                            <path d="M103.535997,0 L0,0 L0,283.287993 L93.6639977,192.750662 C99.9733308,186.651995 103.535997,178.251996 103.535997,169.475996 L103.535997,47.1386655" id="path3696" stroke="#7F7EDB" stroke-width="19.9999995"></path>
                        </g>
                        <g id="g3698" transform="translate(153.187330, 543.706920)">
                            <path d="M0,0 L0,67.5333316 C0,79.0133314 9.30666643,88.3199978 20.7999995,88.3199978 L22.9066661,88.3199978 C34.3866658,88.3199978 43.6933322,79.0133314 43.6933322,67.5333316 L43.6933322,14.693333" id="path3700" stroke="#7F7EDB" stroke-width="19.9999995"></path>
                        </g>
                        <g id="g3702" transform="translate(153.186930, 468.119988)">
                            <line x1="224.906661" y1="75.5999981" x2="0" y2="0" id="path3704" stroke="#7F7EDB" stroke-width="19.9999995"></line>
                        </g>
                        <g id="g3706" transform="translate(153.186930, 396.146657)">
                            <line x1="224.906661" y1="75.5999981" x2="0" y2="0" id="path3708" stroke="#7F7EDB" stroke-width="19.9999995"></line>
                        </g>
                        <g id="g3710" transform="translate(153.186930, 324.173325)">
                            <line x1="224.906661" y1="75.5999981" x2="0" y2="0" id="path3712" stroke="#7F7EDB" stroke-width="19.9999995"></line>
                        </g>
                        <g id="g3714" transform="translate(153.186930, 252.199994)">
                            <line x1="224.906661" y1="75.5999981" x2="0" y2="0" id="path3716" stroke="#7F7EDB" stroke-width="19.9999995"></line>
                        </g>
                        <g id="g3718" transform="translate(153.187596, 180.227595)">
                            <line x1="37.1279991" y1="12.4799997" x2="0" y2="0" id="path3720" stroke="#7F7EDB" stroke-width="19.9999995"></line>
                        </g>
                        <g id="g3722" transform="translate(235.097594, 207.760128)">
                            <line x1="142.995996" y1="48.0666655" x2="0" y2="0" id="path3724" stroke="#7F7EDB" stroke-width="19.9999995"></line>
                        </g>
                        <g id="g3726" transform="translate(153.188930, 0.000533)">
                            <path d="M118.514664,0 L0,0 L0,84.9533312 C0,91.5399977 4.38666656,97.3199976 10.7306664,99.0906642 L103.806664,125.074664 C111.195997,127.138663 118.514664,121.582664 118.514664,113.910664 L118.514664,0 Z" id="path3728" stroke="#7F7EDB" stroke-width="19.9999995"></path>
                        </g>
                        <g id="g3730" transform="translate(425.026256, 253.533727)">
                            <path d="M104.931997,0 L6.86399983,0 C3.07333326,0 0,3.07333326 0,6.86399983 L0,30.9346659 C0,34.7266658 3.07333326,37.7999991 6.86399983,37.7999991 L104.931997,37.7999991 C108.723997,37.7999991 111.797331,34.7266658 111.797331,30.9346659 L111.797331,6.86399983 C111.797331,3.07333326 108.723997,0 104.931997,0 Z" id="path3732" stroke="#7F7EDB" stroke-width="19.9999995"></path>
                        </g>
                        <g id="g3734" transform="translate(425.026256, 177.493462)">
                            <path d="M104.931997,0 L6.86399983,0 C3.07333326,0 0,3.07333326 0,6.86533316 L0,30.9359992 C0,34.7266658 3.07333326,37.7999991 6.86399983,37.7999991 L104.931997,37.7999991 C108.723997,37.7999991 111.797331,34.7266658 111.797331,30.9359992 L111.797331,6.86533316 C111.797331,3.07333326 108.723997,0 104.931997,0 Z" id="path3736" stroke="#7F7EDB" stroke-width="19.9999995"></path>
                        </g>
                        <g id="g3738" transform="translate(425.025989, 100.676397)">
                            <path d="M39.3013324,0 L6.86399983,0 C3.07333326,0 0,3.07333326 0,6.86399983 L0,30.9346659 C0,34.7266658 3.07333326,37.7999991 6.86399983,37.7999991 L39.3013324,37.7999991 C43.0933323,37.7999991 46.1666655,34.7266658 46.1666655,30.9346659 L46.1666655,6.86399983 C46.1666655,3.07333326 43.0933323,0 39.3013324,0 Z" id="path3740" stroke="#7F7EDB" stroke-width="19.9999995"></path>
                        </g>
                        <g id="g3742" transform="translate(211.779861, 0.000000)">
                            <line x1="0.66666665" y1="112.638664" x2="0.66666665" y2="0" id="path3744" stroke="#7F7EDB" stroke-width="19.9999995"></line>
                        </g>
                    </g>
                </g>
            </g>
        </g>
    </g>
</svg>