<?xml version="1.0" encoding="UTF-8"?>
<svg width="64px" height="64px" viewBox="0 0 64 64" version="1.1" xmlns="http://www.w3.org/2000/svg" xmlns:xlink="http://www.w3.org/1999/xlink">
    <title>maintenance-2</title>
    <g id="Page-1" stroke="none" stroke-width="1" fill="none" fill-rule="evenodd">
        <g id="Extra-Large" transform="translate(-984.000000, -709.000000)" fill="#7F7EDB" fill-rule="nonzero">
            <g id="maintenance-2" transform="translate(984.000000, 709.000000)">
                <path d="M59.8709677,4.12903226 L43.3981935,4.12903226 L41.4885161,2.21935484 C41.0790241,1.83213099 40.4383953,1.83213099 40.0289032,2.21935484 L38.6735484,3.57574194 C38.1810508,3.34115073 37.6762278,3.13336349 37.1612903,2.95329032 L37.1612903,1.03225806 C37.1612903,0.462157678 36.6991326,0 36.1290323,0 L27.8709677,0 C27.3008674,0 26.8387097,0.462157678 26.8387097,1.03225806 L26.8387097,2.95329032 C26.3238356,3.13235184 25.8190136,3.33910488 25.3264516,3.57264516 L23.9710968,2.21935484 C23.5680002,1.81637993 22.9145805,1.81637993 22.5114839,2.21935484 L20.6018065,4.12903226 L4.12903226,4.12903226 C1.84863071,4.12903226 0,5.97766297 0,8.25806452 L0,47.483871 C0,49.7642725 1.84863071,51.6129032 4.12903226,51.6129032 L22.7096774,51.6129032 L22.7096774,55.7419355 L21.6774194,55.7419355 C19.3970178,55.7419355 17.5483871,57.5905662 17.5483871,59.8709677 L17.5483871,62.9677419 C17.5483871,63.5378423 18.0105448,64 18.5806452,64 L45.4193548,64 C45.9894552,64 46.4516129,63.5378423 46.4516129,62.9677419 L46.4516129,59.8709677 C46.4516129,57.5905662 44.6029822,55.7419355 42.3225806,55.7419355 L41.2903226,55.7419355 L41.2903226,51.6129032 L59.8709677,51.6129032 C62.1513693,51.6129032 64,49.7642725 64,47.483871 L64,8.25806452 C64,5.97766297 62.1513693,4.12903226 59.8709677,4.12903226 Z M23.2412903,4.40877419 L24.3953548,5.56490323 C24.7187613,5.8878035 25.2159935,5.9596166 25.6175484,5.74141935 C26.4281879,5.30491155 27.2819728,4.95378042 28.1651613,4.69367742 C28.6031796,4.56344102 28.9034417,4.16071187 28.9032258,3.70374194 L28.9032258,2.06451613 L35.0967742,2.06451613 L35.0967742,3.70374194 C35.0965583,4.16071187 35.3968204,4.56344102 35.8348387,4.69367742 C36.7180272,4.95378042 37.5718121,5.30491155 38.3824516,5.74141935 C38.7840065,5.9596166 39.2812387,5.8878035 39.6046452,5.56490323 L40.7587097,4.40877419 L45.1385806,8.78967742 L43.9845161,9.94374194 C43.6617652,10.2667276 43.5895552,10.7633815 43.8069677,11.1649032 C44.2433075,11.9761091 44.5947608,12.830182 44.8557419,13.7135484 C44.9859783,14.1515667 45.3887075,14.4518288 45.8456774,14.4516129 L47.483871,14.4516129 L47.483871,20.6451613 L45.8456774,20.6451613 C45.3887075,20.6449454 44.9859783,20.9452075 44.8557419,21.3832258 C44.5947608,22.2665922 44.2433075,23.1206651 43.8069677,23.931871 C43.5895552,24.3333927 43.6617652,24.8300466 43.9845161,25.1530323 L45.1385806,26.3070968 L40.7587097,30.688 L39.6046452,29.531871 C39.2812387,29.2089707 38.7840065,29.1371576 38.3824516,29.3553548 C37.5718121,29.7918626 36.7180272,30.1429938 35.8348387,30.4030968 C35.3968204,30.5333332 35.0965583,30.9360623 35.0967742,31.3930323 L35.0967742,33.0322581 L28.9032258,33.0322581 L28.9032258,31.3930323 C28.9034417,30.9360623 28.6031796,30.5333332 28.1651613,30.4030968 C27.2819728,30.1429938 26.4281879,29.7918626 25.6175484,29.3553548 C25.2159935,29.1371576 24.7187613,29.2089707 24.3953548,29.531871 L23.2412903,30.688 L18.8614194,26.3070968 L20.0154839,25.1530323 C20.3382348,24.8300466 20.4104448,24.3333927 20.1930323,23.931871 C19.7566925,23.1206651 19.4052392,22.2665922 19.1442581,21.3832258 C19.0140217,20.9452075 18.6112925,20.6449454 18.1543226,20.6451613 L16.516129,20.6451613 L16.516129,14.4516129 L18.1543226,14.4516129 C18.6112925,14.4518288 19.0140217,14.1515667 19.1442581,13.7135484 C19.4052392,12.830182 19.7566925,11.9761091 20.1930323,11.1649032 C20.4104448,10.7633815 20.3382348,10.2667276 20.0154839,9.94374194 L18.8614194,8.78967742 L23.2412903,4.40877419 Z M44.3870968,59.8709677 L44.3870968,61.9354839 L19.6129032,61.9354839 L19.6129032,59.8709677 C19.6129032,58.730767 20.5372186,57.8064516 21.6774194,57.8064516 L42.3225806,57.8064516 C43.4627814,57.8064516 44.3870968,58.730767 44.3870968,59.8709677 Z M39.2258065,55.7419355 L24.7741935,55.7419355 L24.7741935,51.6129032 L39.2258065,51.6129032 L39.2258065,55.7419355 Z M61.9354839,47.483871 C61.9354839,48.6240717 61.0111685,49.5483871 59.8709677,49.5483871 L4.12903226,49.5483871 C2.98883148,49.5483871 2.06451613,48.6240717 2.06451613,47.483871 L2.06451613,8.25806452 C2.06451613,7.11786374 2.98883148,6.19354839 4.12903226,6.19354839 L18.5372903,6.19354839 L16.672,8.05987097 C16.2690251,8.46296759 16.2690251,9.11638725 16.672,9.51948387 L18.0263226,10.8738065 C17.7938238,11.3671793 17.587094,11.8722891 17.4069677,12.3870968 L15.483871,12.3870968 C14.9137706,12.3870968 14.4516129,12.8492545 14.4516129,13.4193548 L14.4516129,21.6774194 C14.4516129,22.2475197 14.9137706,22.7096774 15.483871,22.7096774 L17.4049032,22.7096774 C17.5850295,23.2244851 17.7917593,23.7295949 18.0242581,24.2229677 L16.6699355,25.5772903 C16.2669606,25.9803869 16.2669606,26.6338066 16.6699355,27.0369032 L22.5094194,32.8774194 C22.9189114,33.2646432 23.5595402,33.2646432 23.9690323,32.8774194 L25.3243871,31.5210323 C25.8169491,31.7545725 26.3217711,31.9613256 26.8366452,32.1403871 L26.8366452,34.0645161 C26.8366452,34.6346165 27.2988028,35.0967742 27.8689032,35.0967742 L36.1269677,35.0967742 C36.6970681,35.0967742 37.1592258,34.6346165 37.1592258,34.0645161 L37.1592258,32.1434839 C37.6740999,31.9644224 38.1789219,31.7576693 38.6714839,31.524129 L40.0268387,32.8805161 C40.4299353,33.283491 41.083355,33.283491 41.4864516,32.8805161 L47.3259355,27.04 C47.7289104,26.6369034 47.7289104,25.9834837 47.3259355,25.5803871 L45.9716129,24.2260645 C46.2041117,23.7326917 46.4108415,23.2275819 46.5909677,22.7127742 L48.516129,22.7127742 C49.0862294,22.7127742 49.5483871,22.2506165 49.5483871,21.6805161 L49.5483871,13.4193548 C49.5483871,12.8492545 49.0862294,12.3870968 48.516129,12.3870968 L46.5950968,12.3870968 C46.4149705,11.8722891 46.2082407,11.3671793 45.9757419,10.8738065 L47.3300645,9.51948387 C47.7330394,9.11638725 47.7330394,8.46296759 47.3300645,8.05987097 L45.4627097,6.19354839 L59.8709677,6.19354839 C61.0111685,6.19354839 61.9354839,7.11786374 61.9354839,8.25806452 L61.9354839,47.483871 Z" id="Shape"></path>
                <path d="M59.117037,8.96 L49.7303704,8.96 L49.7303704,10.9929412 L58.0740741,10.9929412 L58.0740741,41.4870588 L5.92592593,41.4870588 L5.92592593,10.9929412 L14.2696296,10.9929412 L14.2696296,8.96 L4.88296296,8.96 C4.30695042,8.96 3.84,9.41508938 3.84,9.97647059 L3.84,42.5035294 C3.84,43.0649106 4.30695042,43.52 4.88296296,43.52 L59.117037,43.52 C59.6930496,43.52 60.16,43.0649106 60.16,42.5035294 L60.16,9.97647059 C60.16,9.41508938 59.6930496,8.96 59.117037,8.96 Z" id="Path"></path>
                <rect id="Rectangle" x="57.6" y="44.8" width="2.56" height="2.56"></rect>
                <rect id="Rectangle" x="53.76" y="44.8" width="2.56" height="2.56"></rect>
                <rect id="Rectangle" x="49.92" y="44.8" width="2.56" height="2.56"></rect>
                <path d="M32,29.44 C38.3623203,29.44 43.52,24.2823203 43.52,17.92 C43.52,11.5576797 38.3623203,6.4 32,6.4 C25.6376797,6.4 20.48,11.5576797 20.48,17.92 C20.4875021,24.2792102 25.6407898,29.4324979 32,29.44 L32,29.44 Z M29.9054545,27.1024873 L29.9054545,23.3323055 C29.9053114,22.9639316 29.7116407,22.6227212 29.3954327,22.4337455 C27.8589091,21.490608 26.8797684,19.8565683 26.7727371,18.0568579 C26.6657059,16.2571476 27.4442727,14.5185746 28.8581818,13.3999709 L28.8581818,17.92 C28.8582411,18.1977313 28.9686174,18.4640658 29.1650327,18.6604218 L31.2595782,20.7549673 C31.668538,21.1638036 32.331462,21.1638036 32.7404218,20.7549673 L34.8349673,18.6604218 C35.0313826,18.4640658 35.1417589,18.1977313 35.1418182,17.92 L35.1418182,13.3999709 C36.5552819,14.5186179 37.3335398,16.2569183 37.2265153,18.0563061 C37.1194909,19.8556939 36.1406668,21.489486 34.6045673,22.4326982 C34.2883593,22.6216739 34.0946886,22.9628844 34.0945455,23.3312582 L34.0945455,27.10144 C32.7169699,27.4253845 31.2830301,27.4253845 29.9054545,27.10144 L29.9054545,27.1024873 Z M32,8.49454021 C36.3760001,8.48995455 40.1785408,11.5004 41.1780318,15.7607305 C42.1775228,20.021061 40.11056,24.408516 36.1890909,26.3505455 L36.1890909,23.8957382 C38.1644733,22.4638736 39.3329928,20.1712383 39.3309091,17.7314909 C39.3461459,14.5840143 37.4002444,11.7598038 34.45376,10.6529745 C34.1326774,10.5357306 33.7745825,10.5825592 33.4944458,10.7784255 C33.2143091,10.9742917 33.0473874,11.2945447 33.0472727,11.6363636 L33.0472727,17.4864291 L32,18.5337018 L30.9527273,17.4864291 L30.9527273,11.6363636 C30.9526126,11.2945447 30.7856909,10.9742917 30.5055542,10.7784255 C30.2254175,10.5825592 29.8673226,10.5357306 29.54624,10.6529745 C26.5997556,11.7598038 24.6538541,14.5840143 24.6690909,17.7314909 C24.6670072,20.1712383 25.8355267,22.4638736 27.8109091,23.8957382 L27.8109091,26.3505455 C23.88944,24.408516 21.8224772,20.021061 22.8219682,15.7607305 C23.8214592,11.5004 27.6239999,8.48995455 32,8.49454021 L32,8.49454021 Z" id="Shape"></path>
                <rect id="Rectangle" x="23.04" y="37.12" width="12.8" height="2.56"></rect>
                <rect id="Rectangle" x="38.4" y="37.12" width="2.56" height="2.56"></rect>
            </g>
        </g>
    </g>
</svg>