<?xml version="1.0" encoding="UTF-8"?>
<svg width="64px" height="64px" viewBox="0 0 64 64" version="1.1" xmlns="http://www.w3.org/2000/svg" xmlns:xlink="http://www.w3.org/1999/xlink">
    <title>sketch</title>
    <g id="Page-1" stroke="none" stroke-width="1" fill="none" fill-rule="evenodd">
        <g id="Extra-Large" transform="translate(-334.000000, -733.000000)" fill="#ED647E" fill-rule="nonzero">
            <g id="sketch" transform="translate(334.000000, 733.000000)">
                <path d="M56.6100831,45.6500838 C56.2457462,45.4990537 55.8263955,45.5824836 55.5474339,45.8613183 L44.8916184,56.5172435 C44.6127865,56.796208 44.5293575,57.215563 44.6803861,57.5799036 C44.8311551,57.944374 45.1869285,58.1818182 45.5812375,58.1818182 L56.237053,58.1818182 C56.7756436,58.1818182 57.2121212,57.745336 57.2121212,57.2067399 L57.2121212,46.5508148 C57.2119915,46.1565017 56.9744199,45.8009841 56.6100831,45.6500838 Z M47.9348952,56.2317914 L55.2617253,48.904886 L55.2617253,56.2317914 L47.9348952,56.2317914 Z" id="Shape"></path>
                <path d="M63.420125,30.1024144 C63.069125,29.9564463 62.665125,30.0370799 62.396375,30.3065691 L59.583,33.1289957 L59.583,13.9385765 C59.583,13.418032 59.162375,12.9961792 58.643625,12.9961792 L51.426,12.9961792 L54.046,10.3677497 C54.046375,10.3673735 54.04675,10.3668719 54.047125,10.3664957 L56.571625,7.83387348 C57.1125,7.29125829 57.410375,6.56944341 57.410375,5.80198214 C57.410375,5.03452087 57.1125,4.31295679 56.571625,3.7700908 L53.652375,0.841448552 C53.1115,0.298833368 52.392,0 51.627,0 C50.862,0 50.142625,0.298833368 49.601625,0.841448552 L47.075875,3.37532477 L44.023875,6.43714412 L37.486,12.9960538 L8.3275,12.9960538 L8.3275,3.67302952 C8.3275,3.15248512 7.906875,2.73063222 7.388125,2.73063222 C3.314375,2.73088303 0,6.05567073 0,10.1427782 L0,50.1693948 C0,50.238993 0.008,50.3067102 0.02225,50.3719193 C0.152,52.1061059 0.899875,53.7173984 2.14975,54.9405711 C3.48575,56.2477633 5.249375,56.9676972 7.115875,56.9676972 L35.820625,56.9676972 L30.4145,62.3912156 C30.145875,62.6608302 30.0655,63.0660046 30.210875,63.4182593 C30.35625,63.7703886 30.698875,64 31.07875,64 L63.060625,64 C63.579375,64 64,63.5781471 64,63.0576027 L64,30.9730816 C64,30.5919845 63.771,30.2482571 63.420125,30.1024144 Z M50.930375,2.1743482 C51.314375,1.78886194 51.94,1.78886194 52.324,2.1743482 L55.243375,5.10311585 C55.627625,5.48847672 55.627625,6.11586377 55.243375,6.50135003 L53.382,8.36883913 L49.06875,4.0418373 L50.930375,2.1743482 Z M47.74025,5.37461155 L52.053375,9.70148798 L50.32975,11.4306585 L46.016875,7.10378205 L47.74025,5.37461155 Z M62.1215,41.5622916 L60.388375,41.5622916 C59.8695,41.5622916 59.449,41.9841445 59.449,42.5046889 C59.449,43.0252333 59.8695,43.4470862 60.388375,43.4470862 L62.1215,43.4470862 L62.1215,46.2869437 L60.388375,46.2869437 C59.8695,46.2869437 59.449,46.7087966 59.449,47.229341 C59.449,47.7498854 59.8695,48.1717383 60.388375,48.1717383 L62.1215,48.1717383 L62.1215,51.0114704 L60.388375,51.0114704 C59.8695,51.0114704 59.449,51.4333233 59.449,51.9538677 C59.449,52.4744121 59.8695,52.896265 60.388375,52.896265 L62.1215,52.896265 L62.1215,55.7361225 L60.388375,55.7361225 C59.8695,55.7361225 59.449,56.1581008 59.449,56.6785198 C59.449,57.1990642 59.8695,57.6209171 60.388375,57.6209171 L62.1215,57.6209171 L62.1215,62.1155816 L33.3465,62.1155816 L42.835,52.5966792 C43.201875,52.2284984 43.201875,51.6319603 42.835,51.2639049 C42.792875,51.2216444 42.747625,51.185027 42.70025,51.1524224 C42.3345,50.9011165 41.83125,50.9381101 41.506375,51.2639049 L37.699375,55.0831534 L7.116,55.0831534 C4.267,55.0831534 1.9735,52.8517472 1.88325,49.9987225 C1.888625,49.8196482 1.9025,49.6420787 1.92475,49.4665157 C1.924875,49.4655124 1.925,49.4645092 1.925125,49.463506 C1.935625,49.3801136 1.94825,49.2970973 1.962625,49.2145827 C1.96425,49.2051775 1.966,49.1957724 1.967625,49.1863672 C1.98075,49.1127561 1.9955,49.0395213 2.011625,48.9665372 C2.016125,48.9462221 2.020875,48.9259069 2.025625,48.9057172 C2.039875,48.8440193 2.05525,48.7826976 2.07175,48.7216268 C2.08075,48.6885206 2.090125,48.6557906 2.09975,48.6228099 C2.1135,48.5749062 2.12775,48.527128 2.142875,48.4798514 C2.158,48.4325748 2.174125,48.3857998 2.1905,48.3390248 C2.201875,48.3062948 2.213125,48.2735648 2.225375,48.2410857 C2.24825,48.1793878 2.2725,48.1183169 2.2975,48.0577477 C2.304625,48.0403168 2.311625,48.0226351 2.319,48.0052042 C2.351125,47.9299629 2.3845,47.8555994 2.41975,47.7821137 C2.42125,47.7789787 2.422625,47.7758436 2.424125,47.7727086 C3.158875,46.2473166 4.572,45.1100443 6.267875,44.7571626 C6.272625,44.7561594 6.277375,44.7550308 6.282125,44.7540276 C6.359875,44.7381015 6.438375,44.7244327 6.517375,44.711767 C6.5305,44.7096352 6.543625,44.7070018 6.557,44.7049953 C6.628375,44.6940853 6.7005,44.685558 6.772625,44.6774068 C6.792875,44.6751496 6.813,44.6720145 6.833375,44.6700081 C6.903,44.6629856 6.97325,44.6583457 7.0435,44.6539566 C7.06575,44.6525772 7.088,44.6501946 7.11025,44.6490659 C7.20225,44.6444261 7.295,44.6420434 7.388125,44.6420434 C7.906875,44.6420434 8.3275,44.2201905 8.3275,43.6996461 L8.3275,36.8666074 C8.3275,36.346063 7.906875,35.9242101 7.388125,35.9242101 C6.869375,35.9242101 6.44875,36.346063 6.44875,36.8666074 L6.44875,42.8165641 C4.8625,43.0178345 3.390125,43.7276108 2.229125,44.8650085 C2.107,44.9846422 1.99125,45.1090411 1.8785,45.2354465 L1.8785,10.1427782 C1.8785,7.41640966 3.85675,5.14449857 6.448625,4.69580961 L6.448625,13.9385765 L6.448625,33.0971436 L6.448625,33.097269 C6.448625,33.617688 6.86925,34.0396663 7.388,34.0396663 C7.90675,34.0396663 8.327375,33.617688 8.327375,33.097269 L8.327375,33.0971436 L8.327375,14.8809737 L35.607375,14.8809737 L30.414375,20.0906814 C30.0475,20.4588622 30.0475,21.0554003 30.414375,21.4234557 C30.78125,21.7913857 31.376,21.7913857 31.74275,21.4234557 L38.539375,14.6049636 C38.539625,14.6047128 38.53975,14.604462 38.54,14.6043366 L44.688125,8.4364309 L49.001,12.7634327 L48.495,13.2710607 C48.494625,13.2714369 48.494125,13.2718131 48.49375,13.2721893 L29.55275,32.2743799 L25.23975,27.9475035 L28.97325,24.2019915 C29.340125,23.8338108 29.340125,23.2372727 28.97325,22.8692173 C28.606375,22.5012873 28.011625,22.5012873 27.644875,22.8692173 L23.247,27.2811164 C23.2235,27.304692 23.2015,27.329647 23.180875,27.3552291 C23.174,27.3637564 23.167875,27.3729108 23.161375,27.3818143 C23.148125,27.399496 23.135125,27.4173031 23.123,27.4358627 C23.116125,27.4466473 23.109875,27.4576826 23.103375,27.4688434 C23.093,27.4863997 23.083,27.5042069 23.073875,27.5223902 C23.067875,27.534178 23.0625,27.5460912 23.057,27.5583806 C23.048625,27.5768147 23.040875,27.595625 23.03375,27.6144354 C23.03125,27.6210817 23.028,27.6273518 23.025625,27.6339981 L21.1955,32.835053 L19.94775,36.381301 C19.93125,36.4284522 19.919375,36.4763558 19.9105,36.5246356 L16.7865,36.5246356 C16.26775,36.5246356 15.847125,36.9464885 15.847125,37.4670329 C15.847125,37.9875773 16.26775,38.4094302 16.7865,38.4094302 L42.80075,38.4094302 C43.319625,38.4094302 43.740125,37.9875773 43.740125,37.4670329 C43.740125,36.9464885 43.319625,36.5246356 42.80075,36.5246356 L24.136625,36.5246356 L29.865375,34.4958794 C29.870125,34.4941237 29.874625,34.4917411 29.879375,34.4899855 C29.901625,34.4817089 29.9235,34.4724292 29.945125,34.4625224 C29.95375,34.4585095 29.962375,34.4547475 29.97075,34.4506092 C29.99325,34.439323 30.015375,34.4269082 30.037125,34.4136155 C30.044125,34.4093519 30.051375,34.4054644 30.05825,34.4010753 C30.080875,34.3865287 30.102875,34.3706026 30.1245,34.3537987 C30.129875,34.3496604 30.1355,34.3460238 30.14075,34.3417601 C30.166875,34.3206925 30.1925,34.2979947 30.21675,34.2736667 L49.54725,14.8810992 L57.704125,14.8810992 L57.704125,35.0139157 L44.267125,48.4942726 C43.90025,48.8624534 43.90025,49.4589915 44.267125,49.8270469 C44.29,49.8499955 44.313875,49.8715647 44.3385,49.8917544 C44.51075,50.0325811 44.721125,50.1030571 44.931375,50.1030571 C45.141625,50.1030571 45.352125,50.0325811 45.52425,49.8917544 C45.548875,49.8716901 45.57275,49.8499955 45.595625,49.8270469 C45.596,49.8266707 45.595625,49.8270469 45.596,49.8266707 L62.1215,33.247877 L62.1215,41.5622916 Z M27.834625,33.2160248 L25.143875,34.1689559 L23.351125,32.370438 L24.301,29.6710309 L27.834625,33.2160248 Z" id="Shape"></path>
            </g>
        </g>
    </g>
</svg>