<?xml version="1.0" encoding="UTF-8"?>
<svg width="64px" height="64px" viewBox="0 0 64 64" version="1.1" xmlns="http://www.w3.org/2000/svg" xmlns:xlink="http://www.w3.org/1999/xlink">
    <title>start-up</title>
    <g id="Page-1" stroke="none" stroke-width="1" fill="none" fill-rule="evenodd">
        <g id="start-up" fill="#ED647E" fill-rule="nonzero">
            <path d="M20.5386674,25.7886044 L20.5386674,31.9490652 C20.5386674,32.4624369 20.8512492,32.7704599 21.3722189,32.9758086 C21.8931885,33.1811573 22.4141582,32.7704599 22.5183521,32.3597626 L23.2477096,30.9223217 C23.7686793,30.1009269 24.6022308,30.3062756 24.7064247,30.40895 L24.7064247,30.8196474 C24.7064247,31.9490652 25.6441701,32.8731343 26.7903034,32.9758086 L26.7903034,34.0025521 C26.7903034,34.2079008 26.8944973,34.5159238 27.1028852,34.6185982 L28.874182,36.3640621 L28.874182,38.1095259 C28.0406306,37.4934799 26.8944973,37.0827825 25.748364,37.0827825 C25.0190065,37.0827825 24.3938429,37.1854568 23.8728732,37.3908055 C22.9351278,35.9533647 21.3722189,35.0292956 19.4967281,35.0292956 C18.6631766,35.0292956 17.7254312,35.2346442 16.9960737,35.6453416 C16.475104,35.9533647 16.2667161,36.5694107 16.5792979,37.0827825 C16.8918797,37.5961542 17.5170433,37.8015029 18.038013,37.4934799 C18.4547887,37.1854568 18.9757584,37.0827825 19.4967281,37.0827825 C21.2680249,37.0827825 22.622546,38.417549 22.622546,40.1630129 C22.622546,40.6763846 22.5183521,41.1897563 22.2057703,41.8058024 C21.9973825,42.3191741 22.1015764,43.0378946 22.622546,43.1405689 C23.4560975,43.3459176 23.8728732,43.0378946 23.9770672,42.7298715 C24.3938429,41.9084767 24.6022308,41.087082 24.6022308,40.2656872 C24.6022308,39.9576642 24.6022308,39.7523155 24.4980368,39.4442924 C25.0190065,39.1362694 25.4357822,39.1362694 25.748364,39.1362694 C27.5196609,39.1362694 28.874182,40.4710359 28.874182,42.2164998 C28.874182,42.8325459 29.2909577,43.2432432 29.9161213,43.2432432 C30.5412849,43.2432432 30.9580607,42.8325459 30.9580607,42.2164998 L30.9580607,37.0827825 L33.0419393,37.0827825 L33.0419393,42.2164998 C33.0419393,42.8325459 33.4587151,43.2432432 34.0838787,43.2432432 C34.7090423,43.2432432 35.125818,42.8325459 35.125818,42.2164998 C35.125818,40.4710359 36.4803391,39.1362694 38.251636,39.1362694 C38.5642178,39.1362694 38.9809935,39.1362694 39.3977692,39.3416181 C39.3977692,39.6496411 39.2935753,39.8549898 39.2935753,40.1630129 C39.2935753,40.9844076 39.5019632,41.9084767 39.9187389,42.6271972 C40.1271268,43.0378946 40.6480964,43.3459176 41.27326,43.0378946 C41.7942297,42.8325459 42.0026175,42.2164998 41.6900358,41.7031281 C41.4816479,41.1897563 41.377454,40.6763846 41.377454,40.1630129 C41.377454,38.417549 42.7319751,37.0827825 44.5032719,37.0827825 C45.0242416,37.0827825 45.5452113,37.1854568 45.961987,37.4934799 C46.4829567,37.8015029 47.1081203,37.5961542 47.4207021,37.0827825 C47.7332839,36.5694107 47.524896,35.9533647 47.0039263,35.6453416 C46.2745688,35.2346442 45.3368234,35.0292956 44.5032719,35.0292956 C42.6277811,35.0292956 41.0648722,35.9533647 40.1271268,37.3908055 C39.6061571,37.1854568 38.9809935,37.0827825 38.251636,37.0827825 C37.1055027,37.0827825 35.9593694,37.4934799 35.125818,38.1095259 L35.125818,36.4667364 L36.8971148,34.7212725 C37.1055027,34.5159238 37.2096966,34.3105751 37.2096966,34.1052264 L37.2096966,32.9758086 C38.3558299,32.8731343 39.2935753,31.9490652 39.2935753,30.8196474 L39.2935753,30.40895 C39.5019632,30.3062756 39.9187389,29.9982526 40.7522904,30.8196474 L41.4816479,32.3597626 C41.6900358,32.7704599 42.1068115,33.078483 42.6277811,32.9758086 C43.1487508,32.8731343 43.4613326,32.4624369 43.4613326,31.9490652 L43.4613326,25.7886044 C43.4613326,25.5832557 43.3571387,25.2752327 43.1487508,25.1725583 L39.2935753,21.2709332 L39.2935753,15.2131467 C39.2935753,13.0569855 38.9809935,11.0034986 38.3558299,9.05268597 C38.147442,8.53931424 37.6264724,8.23129121 37.0013088,8.4366399 C36.4803391,8.64198859 36.1677573,9.15536032 36.3761452,9.7714064 C37.0013088,11.5168703 37.2096966,13.4676829 37.2096966,15.3158211 L37.2096966,30.9223217 L26.7903034,30.9223217 L26.7903034,15.2131467 C26.7903034,10.4901268 28.6657942,5.97245559 32,2.58420217 C33.0419393,3.61094563 33.8754908,4.74036344 34.6048483,5.97245559 C34.9174301,6.48582732 35.5425937,6.58850167 36.0635634,6.28047863 C36.584533,5.97245559 36.688727,5.35640951 36.3761452,4.84303778 C35.5425937,3.40559694 34.5006544,2.17350478 33.3545211,0.941412628 L32.7293575,0.325366551 C32.5209697,0.120017859 32,-0.290679525 31.2706425,0.325366551 L30.6454789,0.941412628 C26.7903034,4.84303778 24.7064247,9.87408074 24.7064247,15.2131467 L24.7064247,21.2709332 L20.8512492,25.069884 C20.6428613,25.2752327 20.5386674,25.4805814 20.5386674,25.7886044 L20.5386674,25.7886044 Z M39.2935753,24.1458149 L41.377454,26.1993018 L41.377454,28.6634861 C40.6480964,28.1501144 39.6061571,28.2527887 39.2935753,28.2527887 L39.2935753,24.1458149 Z M28.874182,32.9758086 L35.125818,32.9758086 L35.125818,33.5918547 L33.6671029,35.0292956 L30.3328971,35.0292956 L28.874182,33.5918547 L28.874182,32.9758086 Z M22.622546,26.1993018 L24.7064247,24.1458149 L24.7064247,28.2527887 C23.9770672,28.04744 23.0393218,28.4581374 22.622546,28.6634861 L22.622546,26.1993018 Z" id="Shape"></path>
            <path d="M31.1351351,21.8378378 L31.1351351,28.3243243 C31.1351351,28.972973 31.4810811,29.4054054 32,29.4054054 C32.5189189,29.4054054 32.8648649,28.972973 32.8648649,28.3243243 L32.8648649,21.8378378 C32.8648649,21.1891892 32.5189189,20.7567568 32,20.7567568 C31.4810811,20.7567568 31.1351351,21.1891892 31.1351351,21.8378378 Z" id="Path"></path>
            <path d="M35.4594595,11.6756757 C35.4594595,9.96036036 34.1477477,8.64864865 32.4324324,8.64864865 C30.7171171,8.64864865 29.4054054,9.96036036 29.4054054,11.6756757 C29.4054054,12.2810811 29.809009,12.6846847 30.4144144,12.6846847 C31.0198198,12.6846847 31.4234234,12.2810811 31.4234234,11.6756757 C31.4234234,11.0702703 31.827027,10.6666667 32.4324324,10.6666667 C33.0378378,10.6666667 33.4414414,11.0702703 33.4414414,11.6756757 C33.4414414,12.2810811 33.0378378,12.6846847 32.4324324,12.6846847 C31.827027,12.6846847 31.4234234,13.0882883 31.4234234,13.6936937 C31.4234234,14.2990991 31.827027,14.7027027 32.4324324,14.7027027 C34.1477477,14.7027027 35.4594595,13.390991 35.4594595,11.6756757 Z" id="Path"></path>
            <path d="M13.1388595,32.8648649 C13.7573104,32.8648649 14.169611,32.4595089 14.169611,31.8514751 C14.169611,26.0751531 17.0557149,20.7041872 22.0033218,17.4613398 C22.5186975,17.1573228 22.6217726,16.5492889 22.3125472,16.042594 C22.0033218,15.5358991 21.3848709,15.4345602 20.8694952,15.7385771 C15.4065127,19.3867804 12.1081081,25.3657803 12.1081081,31.8514751 C12.1081081,32.4595089 12.5204087,32.8648649 13.1388595,32.8648649 L13.1388595,32.8648649 Z" id="Path"></path>
            <path d="M13.793625,34.6157814 C13.2904206,34.726359 12.8878571,35.3898242 12.988498,35.9427118 C13.1897797,36.7167545 13.3910615,37.4907972 13.5923432,38.1542624 C13.6929841,38.5965725 14.2968293,39.1494602 14.9006746,38.8177276 C15.403879,38.5965725 15.7058016,37.9331074 15.5045199,37.3802197 C15.3032381,36.7167545 15.1019564,36.0532893 15.0013155,35.3898242 C14.9006746,34.8369365 14.3974702,34.5052039 13.793625,34.6157814 L13.793625,34.6157814 Z" id="Path"></path>
            <path d="M51.7626388,29.7352277 C51.1398163,24.075881 47.9219,19.0339175 43.0431235,15.7412066 C42.5241048,15.432515 41.9012823,15.5354122 41.589871,16.0498983 C41.2784597,16.5643843 41.3822635,17.1817676 41.9012823,17.4904593 C46.2610399,20.3715812 49.0637412,24.8990587 49.6865638,29.9410222 C50.41319,36.4235466 47.5066849,42.8031739 42.1088898,46.5074736 C40.4480297,47.639343 39.4099922,49.59439 39.5137959,51.5494371 L24.8774667,51.5494371 C24.8774667,49.4914928 23.9432329,47.639343 22.2823729,46.5074736 C20.4139053,45.1698098 18.7530452,43.6263516 17.5074002,41.7742018 C17.1959889,41.2597157 16.5731664,41.1568185 16.0541477,41.4655101 C15.5351289,41.7742018 15.4313251,42.3915851 15.7427364,42.9060711 C17.1959889,44.9640154 18.9606528,46.8161653 21.0367278,48.2567263 C22.0747654,48.9770068 22.8013916,50.1088761 22.8013916,51.4465399 C22.6975879,52.6813065 23.7356254,53.6073814 24.8774667,53.7102786 L24.8774667,59.7812142 C24.8774667,61.0159808 25.8117005,61.9420557 27.0573455,61.9420557 L29.2372243,61.9420557 C29.6524394,63.1768223 30.7942806,64 32.1437294,64 C33.4931782,64 34.6350195,63.1768223 35.0502345,61.9420557 L37.2301134,61.9420557 C38.4757584,61.9420557 39.4099922,61.0159808 39.4099922,59.7812142 L39.4099922,57.7232699 C39.4099922,57.1058867 38.9947772,56.6942978 38.3719546,56.6942978 C37.7491321,56.6942978 37.3339171,57.1058867 37.3339171,57.7232699 L37.3339171,59.7812142 L34.2198045,59.7812142 C33.7007857,59.7812142 33.181767,60.1928031 33.181767,60.8101864 C33.181767,61.4275696 32.766552,61.8391585 32.1437294,61.8391585 C31.5209069,61.8391585 31.1056919,61.3246724 31.1056919,60.8101864 C31.1056919,60.2957003 30.5866731,59.7812142 30.0676544,59.7812142 L26.9535418,59.7812142 L26.9535418,53.6073814 L37.3339171,53.6073814 L37.3339171,54.842148 C37.3339171,55.4595312 37.7491321,55.8711201 38.3719546,55.8711201 C38.9947772,55.8711201 39.4099922,55.4595312 39.4099922,54.842148 L39.4099922,53.6073814 C40.6556372,53.6073814 41.589871,52.5784092 41.589871,51.3436427 C41.589871,50.0059789 42.3164973,48.8741095 43.4583386,48.0509318 C49.3751525,43.9350433 52.5930689,36.9380327 51.7626388,29.7352277 Z" id="Path"></path>
            <path d="M30.4144144,56.2162162 C29.809009,56.2162162 29.4054054,56.5621622 29.4054054,57.0810811 C29.4054054,57.6 29.809009,57.9459459 30.4144144,57.9459459 L34.4504505,57.9459459 C35.0558559,57.9459459 35.4594595,57.6 35.4594595,57.0810811 C35.4594595,56.5621622 35.0558559,56.2162162 34.4504505,56.2162162 L30.4144144,56.2162162 Z" id="Path"></path>
            <path d="M13.907585,15.2992399 C14.1028771,15.4953663 14.8840453,15.7895557 15.2746295,15.2992399 C15.6652136,14.9069873 15.6652136,14.3186083 15.2746295,13.9263557 L11.1734961,9.80770299 C10.7829119,9.41545035 10.1970357,9.41545035 9.80645161,9.80770299 C9.41586748,10.1999556 9.41586748,10.7883346 9.80645161,11.1805872 L13.907585,15.2992399 Z" id="Path"></path>
            <path d="M7.56756757,31.1351351 L1.08108108,31.1351351 C0.432432432,31.1351351 0,31.4810811 0,32 C0,32.5189189 0.432432432,32.8648649 1.08108108,32.8648649 L7.56756757,32.8648649 C8.21621622,32.8648649 8.64864865,32.5189189 8.64864865,32 C8.64864865,31.4810811 8.21621622,31.1351351 7.56756757,31.1351351 Z" id="Path"></path>
            <path d="M13.907585,48.7266219 L9.80645161,52.8452746 C9.41586748,53.2375273 9.41586748,53.8259062 9.80645161,54.2181589 C10.2946818,54.7084747 10.978204,54.4142852 11.1734961,54.2181589 L15.2746295,50.0995061 C15.6652136,49.7072535 15.6652136,49.1188746 15.2746295,48.7266219 C14.8840453,48.3343693 14.2981691,48.3343693 13.907585,48.7266219 L13.907585,48.7266219 Z" id="Path"></path>
            <path d="M50.092415,48.7266219 C49.7018309,48.3343693 49.1159547,48.3343693 48.7253705,48.7266219 C48.3347864,49.1188746 48.3347864,49.7072535 48.7253705,50.0995061 L52.8265039,54.2181589 C53.021796,54.4142852 53.7053182,54.7084747 54.1935484,54.2181589 C54.5841325,53.8259062 54.5841325,53.2375273 54.1935484,52.8452746 L50.092415,48.7266219 Z" id="Path"></path>
            <path d="M62.9189189,31.1351351 L56.4324324,31.1351351 C55.7837838,31.1351351 55.3513514,31.4810811 55.3513514,32 C55.3513514,32.5189189 55.7837838,32.8648649 56.4324324,32.8648649 L62.9189189,32.8648649 C63.5675676,32.8648649 64,32.5189189 64,32 C64,31.4810811 63.5675676,31.1351351 62.9189189,31.1351351 Z" id="Path"></path>
            <path d="M52.8167619,9.80565568 L48.6915599,13.895646 C48.2986835,14.2851689 48.3969026,14.8694532 48.6915599,15.2589761 C49.0844362,15.8432604 49.870189,15.4537375 50.0666272,15.2589761 L54.1918292,11.1689858 C54.5847056,10.7794629 54.5847056,10.1951786 54.1918292,9.80565568 C53.7989528,9.41613279 53.2096382,9.41613279 52.8167619,9.80565568 Z" id="Path"></path>
        </g>
    </g>
</svg>