<?xml version="1.0" encoding="UTF-8"?>
<svg width="64px" height="56px" viewBox="0 0 64 56" version="1.1" xmlns="http://www.w3.org/2000/svg" xmlns:xlink="http://www.w3.org/1999/xlink">
    <title>web-programming</title>
    <g id="Page-1" stroke="none" stroke-width="1" fill="none" fill-rule="evenodd">
        <g id="Extra-Large" transform="translate(-659.000000, -738.000000)" fill="#A873C9" fill-rule="nonzero">
            <g id="web-programming" transform="translate(659.000000, 738.000000)">
                <path d="M25.2055215,40 C24.9585701,40 24.7098117,39.917125 24.5068295,39.7484361 L17.5223192,33.9448304 C17.281391,33.7444021 17.1428571,33.4516944 17.1428571,33.1425293 C17.1428571,32.8339518 17.2819933,32.5412442 17.5223192,32.3408159 L24.5068295,26.5372102 C24.9603771,26.1598642 25.6416018,26.2133509 26.0282916,26.6559391 C26.4143791,27.0991149 26.3601703,27.7638788 25.9060205,28.140637 L19.8870301,33.1425293 L25.9060205,38.1444215 C26.3601703,38.5217676 26.4143791,39.1865313 26.0282916,39.6291195 C25.8144677,39.8742181 25.5108981,40 25.2055215,40 Z" id="Path"></path>
                <path d="M38.7942126,40 C38.4888259,40 38.1852463,39.8742181 37.9720177,39.6291195 C37.5853151,39.1865313 37.640128,38.5217676 38.0936905,38.1444215 L44.1128794,33.1425293 L38.0936905,28.140637 C37.640128,27.7638788 37.5853151,27.0991149 37.9720177,26.6559391 C38.3581179,26.2133509 39.0399675,26.1598642 39.4929276,26.5372102 L46.4776682,32.3408159 C46.7186045,32.5412442 46.8571429,32.8339518 46.8571429,33.1425293 C46.8571429,33.4516944 46.7186045,33.7444021 46.4776682,33.9448304 L39.4929276,39.7484361 C39.2899388,39.917125 39.0411722,40 38.7942126,40 L38.7942126,40 Z" id="Path"></path>
                <path d="M29.7097758,44.5714286 C29.6317648,44.5714286 29.5531196,44.563588 29.4738402,44.5479066 C28.8599002,44.4248691 28.4666743,43.851297 28.5960583,43.2674717 L33.179678,22.5724327 C33.3090619,21.9886074 33.9115857,21.6146697 34.5261598,21.7377073 C35.1400998,21.8607449 35.5333257,22.433714 35.4039417,23.0181424 L30.8203221,43.7131812 C30.7074281,44.222219 30.2355569,44.5714286 29.7097758,44.5714286 L29.7097758,44.5714286 Z" id="Path"></path>
                <path d="M56.9056604,56 L7.09433962,56 C3.18278309,56 0,52.8440573 0,48.9641835 L0,7.03581646 C0,3.15652744 3.18278309,0 7.09433962,0 L56.9056604,0 C60.8172169,0 64,3.15652744 64,7.03581646 L64,48.9641835 C64,52.8440573 60.8172169,56 56.9056604,56 Z M7.09433962,2.09577512 C4.34787743,2.09577512 2.11320755,4.31201059 2.11320755,7.03581646 L2.11320755,48.9641835 C2.11320755,51.6879894 4.34787743,53.9042249 7.09433962,53.9042249 L56.9056604,53.9042249 C59.6521226,53.9042249 61.8867925,51.6879894 61.8867925,48.9641835 L61.8867925,7.03581646 C61.8867925,4.31201059 59.6521226,2.09577512 56.9056604,2.09577512 L7.09433962,2.09577512 Z" id="Shape"></path>
                <path d="M62.9433962,16 L1.05660377,16 C0.472877283,16 0,15.4885203 0,14.8571429 C0,14.2264029 0.472877283,13.7142857 1.05660377,13.7142857 L62.9433962,13.7142857 C63.5271227,13.7142857 64,14.2264029 64,14.8571429 C64,15.4885203 63.5271227,16 62.9433962,16 Z" id="Path"></path>
                <path d="M18.2857142,11.4285714 C16.3957981,11.4285714 14.8571429,9.88991617 14.8571429,8 C14.8571429,6.10947929 16.3957981,4.57142857 18.2857142,4.57142857 C20.176235,4.57142857 21.7142857,6.10947929 21.7142857,8 C21.7142857,9.88991617 20.176235,11.4285714 18.2857142,11.4285714 Z M18.2857142,6.73824216 C17.5904476,6.73824216 17.0239565,7.30412874 17.0239565,8 C17.0239565,8.69587126 17.5904476,9.26175784 18.2857142,9.26175784 C18.9815855,9.26175784 19.5474721,8.69587126 19.5474721,8 C19.5474721,7.30412874 18.9815855,6.73824216 18.2857142,6.73824216 Z" id="Shape"></path>
                <path d="M7.99999992,11.4285714 C6.10947932,11.4285714 4.57142857,9.89052068 4.57142857,7.99999992 C4.57142857,6.10947932 6.10947932,4.57142857 7.99999992,4.57142857 C9.89052068,4.57142857 11.4285714,6.10947932 11.4285714,7.99999992 C11.4285714,9.89052068 9.89052068,11.4285714 7.99999992,11.4285714 Z M7.99999992,6.73824221 C7.30473335,6.73824221 6.73824221,7.30473335 6.73824221,7.99999992 C6.73824221,8.69587119 7.30473335,9.26175779 7.99999992,9.26175779 C8.69587119,9.26175779 9.26175779,8.69587119 9.26175779,7.99999992 C9.26175779,7.30473335 8.69587119,6.73824221 7.99999992,6.73824221 Z" id="Shape"></path>
                <path d="M28.5711262,11.4285714 C26.6810435,11.4285714 25.1428571,9.8903851 25.1428571,7.9996977 C25.1428571,6.1096149 26.6810435,4.57142857 28.5711262,4.57142857 C30.4618136,4.57142857 32,6.1096149 32,7.9996977 C32,9.8903851 30.4618136,11.4285714 28.5711262,11.4285714 Z M28.5711262,6.73782861 C27.8757983,6.73782861 27.3098618,7.30376509 27.3098618,7.9996977 C27.3098618,8.69563031 27.8757983,9.26156679 28.5711262,9.26156679 C29.2670588,9.26156679 29.8329953,8.69563031 29.8329953,7.9996977 C29.8329953,7.30376509 29.2670588,6.73782861 28.5711262,6.73782861 Z" id="Shape"></path>
            </g>
        </g>
    </g>
</svg>